<svg id="Capa_1" data-name="Capa 1" xmlns="http://www.w3.org/2000/svg" xmlns:xlink="http://www.w3.org/1999/xlink" viewBox="0 0 533.05 829.57"><defs><style>.cls-1{fill:url(#Degradado_sin_nombre_11);}.cls-2{fill:url(#Degradado_sin_nombre_11-2);}</style><linearGradient id="Degradado_sin_nombre_11" x1="205.02" y1="508.81" x2="533.05" y2="508.81" gradientUnits="userSpaceOnUse"><stop offset="0" stop-color="#951b81"/><stop offset="1" stop-color="#e6007e"/></linearGradient><linearGradient id="Degradado_sin_nombre_11-2" x1="0" y1="284.13" x2="392.66" y2="284.13" xlink:href="#Degradado_sin_nombre_11"/></defs><path class="cls-1" d="M512.64,224.42c-10.62-16.15-25.11-27.66-44-33-25.53-7.21-50.2-1.9-74.21,6.48-26.14,9.13-48.64,24.41-68.66,43.63-21.5,20.63-40.26,43.22-55.57,68.91-16,26.84-29.41,54.74-39.43,84.31a481.37,481.37,0,0,0-22.39,99.42,486.88,486.88,0,0,0,7.87,161.3,433.23,433.23,0,0,0,36.33,102.87c9.93,19.71,22.35,38.18,33.86,57.08,3,5,6.78,9.44,10.2,14.14l1.09-.5c-.85-3.28-1.63-6.57-2.55-9.82a715.79,715.79,0,0,1-22.53-116.43c-3.74-33.88-5.25-67.92-2.86-102,.95-13.48,2.42-26.93,3.62-40.39.3-3.33,1.92-4.82,5.33-5.76,24.56-6.75,49.39-12.7,72.35-24.3,9.14-4.62,18.81-8.19,28-12.75,34.1-17,66.1-36.79,92.62-64.88,26.34-27.89,45.18-59.67,53.66-97.09,3.41-15,5.3-30.47,6.88-45.83C535.36,279.25,529.69,250.37,512.64,224.42ZM478.23,348.23c-5.05,17.95-11.79,35.19-21.5,51.16-12.13,19.94-27.7,36.85-45,52.52-23.27,21.11-50.17,36-78.92,47.68-14.74,6-30.25,10.06-45.44,14.92-1.65.53-3.45.55-6.3,1,1-5,1.5-9,2.51-12.9,8.26-31.55,17.83-62.62,31.7-92.27,12.37-26.46,25.82-52.27,42.83-76.07,13.1-18.31,26.8-36.1,46.2-48.45,12.82-8.16,26.19-14.59,41.86-14.38,17.69.24,31.24,11.67,34.95,29C484.63,316.7,482.66,332.51,478.23,348.23Z"/><path class="cls-2" d="M177.41,525.81c-19.33-3.11-37-10.18-52.1-22.94-25.13-21.17-35.19-49.53-37.66-81-3.19-40.75,7.79-79.11,21.73-116.76,9.7-26.18,22.56-50.94,36.56-75A371.77,371.77,0,0,1,217.54,141c22.05-20,46.58-36.16,75.25-45.19,11.68-3.68,23.58-6.74,36-4.45,9,1.66,14.39,6.81,15.37,16a57.7,57.7,0,0,1-.87,17.88c-3.45,16.09-11,30.54-19.45,44.5-.62,1-1.19,2.08-2.46,4.31,2.2-1.11,3.27-1.42,4.06-2.07,6.12-5,12.33-10,18.23-15.23a155.3,155.3,0,0,0,33.74-42.15c10.73-19.89,16.95-40.88,14.83-63.77-2-21.13-13.13-36.1-31.83-45.23C349.06,0,336.49-.4,324,.22c-16.47.82-32.59,3.25-47.82,10.15-13.78,6.25-28.1,11.38-41.52,18.3-33.08,17-62.26,39.52-88.86,65.55-24.64,24.12-47,50-66.37,78.6C60.79,200.29,44.58,229,32.35,259.87a473.49,473.49,0,0,0-17,49.86c-4.9,18-8.55,36.43-11.64,54.86C1.66,377.07,1.28,389.85.49,402.52c-1.38,22.09,0,44,6.14,65.37Q23.72,527.37,80.75,552c18.57,8,38.09,12.4,58.07,14.5,12.28,1.3,24.7,1.19,37.07,1.74,2.49.11,3.92-.56,4.05-3.47.49-11.4,1.06-22.79,1.83-34.17C182,527.08,180.55,526.31,177.41,525.81Z"/></svg>